<svg xmlns="http://www.w3.org/2000/svg" viewBox="0 0 576 512">
  <path fill="#FFFFFF" d="M112 32C50.1 32 0 82.1 0 144v224c0 61.9 50.1 112 112 112s112-50.1 112-112V144c0-61.9-50.1-112-112-112zm0 64c26.5 0 48 21.5 48 48v224c0 26.5-21.5 48-48 48s-48-21.5-48-48V144c0-26.5 21.5-48 48-48zM304 32c-26.5 0-48 21.5-48 48v96h-16c-8.8 0-16 7.2-16 16s7.2 16 16 16h16v96c0 26.5 21.5 48 48 48s48-21.5 48-48V208h16c8.8 0 16-7.2 16-16s-7.2-16-16-16H352V80c0-26.5-21.5-48-48-48zm128 416c61.9 0 112-50.1 112-112V144c0-61.9-50.1-112-112-112s-112 50.1-112 112v192c0 61.9 50.1 112 112 112zm0-64c-26.5 0-48-21.5-48-48V144c0-26.5 21.5-48 48-48s48 21.5 48 48v192c0 26.5-21.5 48-48 48z"/>
</svg>
